<?xml version="1.0" encoding="UTF-8" standalone="no"?>
<svg xmlns="http://www.w3.org/2000/svg" width="600" height="400" viewBox="0 0 600 400">
  <rect width="600" height="400" fill="#f8fafc" rx="10" />
  
  <!-- Office Building -->
  <rect x="100" y="100" width="400" height="250" fill="#e2e8f0" rx="5" />
  
  <!-- Windows -->
  <rect x="130" y="130" width="60" height="40" fill="#ffffff" />
  <rect x="210" y="130" width="60" height="40" fill="#ffffff" />
  <rect x="290" y="130" width="60" height="40" fill="#ffffff" />
  <rect x="370" y="130" width="60" height="40" fill="#ffffff" />
  
  <rect x="130" y="190" width="60" height="40" fill="#ffffff" />
  <rect x="210" y="190" width="60" height="40" fill="#ffffff" />
  <rect x="290" y="190" width="60" height="40" fill="#ffffff" />
  <rect x="370" y="190" width="60" height="40" fill="#ffffff" />
  
  <rect x="130" y="250" width="60" height="40" fill="#ffffff" />
  <rect x="210" y="250" width="60" height="40" fill="#ffffff" />
  <rect x="290" y="250" width="60" height="40" fill="#ffffff" />
  <rect x="370" y="250" width="60" height="40" fill="#ffffff" />
  
  <!-- Door -->
  <rect x="250" y="300" width="100" height="50" fill="#e53e3e" />
  
  <!-- Company Sign -->
  <rect x="200" y="70" width="200" height="40" fill="#e53e3e" rx="5" />
  <text x="300" y="95" font-family="Arial, sans-serif" font-size="16" font-weight="bold" fill="white" text-anchor="middle">
    PT. Indo Web Solution
  </text>
  
  <!-- Decorative Elements -->
  <rect x="50" y="350" width="500" height="10" fill="#94a3b8" />
  <circle cx="80" cy="80" r="30" fill="#e53e3e" opacity="0.2" />
  <circle cx="520" cy="80" r="30" fill="#e53e3e" opacity="0.2" />
</svg>
